<svg version="1.0" xmlns="http://www.w3.org/2000/svg" width="5000.000000pt" height="5000.000000pt" viewBox="0 0 5000.000000 5000.000000" preserveAspectRatio="xMidYMid meet">
    <g transform="translate(0.000000,5000.000000) scale(0.100000,-0.100000)" fill="#000000" stroke="none">
        <path d="M24430 49774 c-30 -2 -140 -8 -245 -14 -1565 -86 -3174 -455 -4630 -1060 -2325 -967 -4297 -2519 -5751 -4526 -1422 -1963 -2301 -4309 -2544 -6784 -52 -537 -50 -362 -50 -4198 l0 -3569 -132 -7 c-1207 -63 -2393 -513 -3330 -1262 -997 -799 -1709 -1919 -2021 -3181 -30 -120 -63 -263 -73 -317 -18 -97 -17 -349 18 -10000 l36 -9901 30 -135 c162 -727 410 -1337 785 -1925 708 -1114 1782 -1943 3052 -2358 320 -104 639 -179 988 -233 l162 -25 14215 -37 c11817 -30 14239 -34 14350 -23 1571 153 3037 972 3978 2224 528 702 861 1445 1050 2342 l35 170 5 360 c7 575 -57 18833 -67 19225 -9 327 -12 369 -40 528 -200 1140 -702 2123 -1481 2902 -967 967 -2297 1532 -3714 1577 l-199 6 6 1111 c16 2604 20 5589 8 5831 -30 619 -85 1153 -176 1715 -318 1948 -1031 3790 -2093 5400 -592 898 -1263 1696 -2047 2433 -2217 2084 -5141 3387 -8260 3682 -420 39 -610 47 -1210 50 -330 1 -625 1 -655 -1z m1085 -5435 c1858 -110 3658 -873 5050 -2140 173 -157 527 -515 661 -669 825 -943 1416 -2020 1754 -3195 123 -427 203 -819 268 -1312 l27 -208 3 -3632 2 -3633 -8245 0 -8245 0 3 3793 2 3792 28 165 c91 536 194 951 351 1415 486 1436 1378 2728 2566 3718 1522 1267 3456 1955 5400 1920 118 -2 287 -8 375 -14z m-95 -23913 c491 -78 951 -279 1343 -588 133 -105 382 -356 478 -483 384 -504 579 -1069 579 -1674 0 -698 -262 -1359 -754 -1904 -147 -163 -389 -362 -597 -490 -112 -69 -311 -172 -392 -202 -26 -10 -50 -22 -53 -26 -3 -5 -16 -1121 -29 -2481 -24 -2388 -25 -2475 -44 -2543 -127 -452 -591 -761 -1042 -696 -326 48 -592 239 -739 530 -18 36 -38 82 -46 103 -10 29 -18 495 -38 2285 -14 1236 -29 2365 -32 2508 l-6 261 -77 33 c-176 78 -384 198 -551 319 -651 474 -1072 1165 -1186 1947 -25 168 -25 525 0 690 69 474 244 895 529 1278 462 620 1179 1046 1912 1136 50 6 101 13 115 15 64 11 531 -3 630 -18z" />
    </g>
</svg>